<?xml version="1.0" encoding="UTF-8" standalone="no"?>
<svg
   xmlns:dc="http://purl.org/dc/elements/1.1/"
   xmlns:cc="http://creativecommons.org/ns#"
   xmlns:rdf="http://www.w3.org/1999/02/22-rdf-syntax-ns#"
   xmlns:svg="http://www.w3.org/2000/svg"
   xmlns="http://www.w3.org/2000/svg"
   xmlns:sodipodi="http://sodipodi.sourceforge.net/DTD/sodipodi-0.dtd"
   xmlns:inkscape="http://www.inkscape.org/namespaces/inkscape"
   height="32"
   viewBox="0 0 41.249998 23.999999"
   width="55"
   version="1.1"
   id="svg8"
   sodipodi:docname="logo_istu.svg"
   inkscape:version="0.92.4 (5da689c313, 2019-01-14)">
  <metadata
     id="metadata14">
    <rdf:RDF>
      <cc:Work
         rdf:about="">
        <dc:format>image/svg+xml</dc:format>
        <dc:type
           rdf:resource="http://purl.org/dc/dcmitype/StillImage" />
        <dc:title />
      </cc:Work>
    </rdf:RDF>
  </metadata>
  <defs
     id="defs12" />
  <sodipodi:namedview
     pagecolor="#ffffff"
     bordercolor="#666666"
     borderopacity="1"
     objecttolerance="10"
     gridtolerance="10"
     guidetolerance="10"
     inkscape:pageopacity="0"
     inkscape:pageshadow="2"
     inkscape:window-width="1920"
     inkscape:window-height="1017"
     id="namedview10"
     showgrid="false"
     units="px"
     inkscape:snap-text-baseline="false"
     inkscape:snap-object-midpoints="true"
     inkscape:snap-bbox="true"
     inkscape:bbox-nodes="true"
     inkscape:bbox-paths="true"
     inkscape:snap-page="true"
     inkscape:zoom="11.313708"
     inkscape:cx="15.069801"
     inkscape:cy="11.05138"
     inkscape:window-x="-8"
     inkscape:window-y="-8"
     inkscape:window-maximized="1"
     inkscape:current-layer="svg8"
     inkscape:snap-center="true"
     inkscape:snap-midpoints="true"
     inkscape:snap-grids="false"
     inkscape:snap-to-guides="false"
     inkscape:snap-global="true"
     inkscape:snap-nodes="true"
     inkscape:snap-others="true"
     inkscape:object-nodes="false"
     inkscape:snap-intersection-paths="true"
     inkscape:snap-bbox-midpoints="true"
     inkscape:snap-smooth-nodes="false" />
  <g
     id="g1154"
     style="fill:#ffffff">
    <g
       id="g1016"
       style="fill:#ffffff">
      <path
         inkscape:connector-curvature="0"
         style="opacity:1;fill:#ffffff;fill-opacity:1;stroke:none;stroke-width:2.06440163;stroke-miterlimit:4;stroke-dasharray:none;stroke-opacity:1"
         d="m 16.29171,11.257319 v 3.265136 l 4.333008,1.595215 4.333008,-1.595215 v -3.265136 l -4.333008,1.875 z"
         id="path981-7-0-8-5-7-2" />
      <path
         sodipodi:type="star"
         style="opacity:1;fill:#ffffff;fill-opacity:1;stroke:none;stroke-width:1.41732275;stroke-miterlimit:4;stroke-dasharray:none;stroke-opacity:1"
         id="path981-7-6-7-2-0"
         sodipodi:sides="4"
         sodipodi:cx="18.749998"
         sodipodi:cy="8.7780323"
         sodipodi:r1="1.8048396"
         sodipodi:r2="1.2762142"
         sodipodi:arg1="1.5707963"
         sodipodi:arg2="2.3561945"
         inkscape:flatsided="true"
         inkscape:rounded="0"
         inkscape:randomized="0"
         d="m 18.749998,10.582872 -1.80484,-1.8048396 1.80484,-1.8048397 1.80484,1.8048396 z"
         transform="matrix(4.8009214,0,0,2.0777469,-69.392268,-10.356201)" />
    </g>
    <path
       id="path1123"
       transform="scale(0.74999997)"
       d="M 6 0 A 2.5 2.5 0 0 0 5.8222656 0.005859375 A 2.5 2.5 0 0 0 5.5742188 0.037109375 A 2.5 2.5 0 0 0 5.3320312 0.091796875 A 2.5 2.5 0 0 0 5.09375 0.16992188 A 2.5 2.5 0 0 0 4.8652344 0.27148438 A 2.5 2.5 0 0 0 4.6484375 0.39648438 A 2.5 2.5 0 0 0 4.4453125 0.54101562 A 2.5 2.5 0 0 0 4.2578125 0.70703125 A 2.5 2.5 0 0 0 4.0878906 0.88867188 A 2.5 2.5 0 0 0 3.9375 1.0878906 A 2.5 2.5 0 0 0 3.8066406 1.3007812 A 2.5 2.5 0 0 0 3.6972656 1.5273438 A 2.5 2.5 0 0 0 3.6113281 1.7617188 A 2.5 2.5 0 0 0 3.5507812 2.0039062 A 2.5 2.5 0 0 0 3.5117188 2.25 A 2.5 2.5 0 0 0 3.5 2.5 L 3.5 24.5 A 2.5 2.5 0 0 0 3.5058594 24.677734 A 2.5 2.5 0 0 0 3.5371094 24.925781 A 2.5 2.5 0 0 0 3.5917969 25.167969 A 2.5 2.5 0 0 0 3.6699219 25.40625 A 2.5 2.5 0 0 0 3.7714844 25.634766 A 2.5 2.5 0 0 0 3.8964844 25.851562 A 2.5 2.5 0 0 0 4.0410156 26.054688 A 2.5 2.5 0 0 0 4.2070312 26.242188 A 2.5 2.5 0 0 0 4.3886719 26.412109 A 2.5 2.5 0 0 0 4.5878906 26.5625 A 2.5 2.5 0 0 0 4.8007812 26.693359 A 2.5 2.5 0 0 0 5.0273438 26.802734 A 2.5 2.5 0 0 0 5.2617188 26.888672 A 2.5 2.5 0 0 0 5.5039062 26.949219 A 2.5 2.5 0 0 0 5.75 26.988281 A 2.5 2.5 0 0 0 6 27 L 49 27 A 2.5 2.5 0 0 0 49.177734 26.994141 A 2.5 2.5 0 0 0 49.425781 26.962891 A 2.5 2.5 0 0 0 49.667969 26.908203 A 2.5 2.5 0 0 0 49.90625 26.830078 A 2.5 2.5 0 0 0 50.134766 26.728516 A 2.5 2.5 0 0 0 50.351562 26.603516 A 2.5 2.5 0 0 0 50.554688 26.458984 A 2.5 2.5 0 0 0 50.742188 26.292969 A 2.5 2.5 0 0 0 50.912109 26.111328 A 2.5 2.5 0 0 0 51.0625 25.912109 A 2.5 2.5 0 0 0 51.193359 25.699219 A 2.5 2.5 0 0 0 51.302734 25.472656 A 2.5 2.5 0 0 0 51.388672 25.238281 A 2.5 2.5 0 0 0 51.449219 24.996094 A 2.5 2.5 0 0 0 51.488281 24.75 A 2.5 2.5 0 0 0 51.5 24.5 L 51.5 2.5 A 2.5 2.5 0 0 0 51.494141 2.3222656 A 2.5 2.5 0 0 0 51.462891 2.0742188 A 2.5 2.5 0 0 0 51.408203 1.8320312 A 2.5 2.5 0 0 0 51.330078 1.59375 A 2.5 2.5 0 0 0 51.228516 1.3652344 A 2.5 2.5 0 0 0 51.103516 1.1484375 A 2.5 2.5 0 0 0 50.958984 0.9453125 A 2.5 2.5 0 0 0 50.792969 0.7578125 A 2.5 2.5 0 0 0 50.611328 0.58789062 A 2.5 2.5 0 0 0 50.412109 0.4375 A 2.5 2.5 0 0 0 50.199219 0.30664062 A 2.5 2.5 0 0 0 49.972656 0.19726562 A 2.5 2.5 0 0 0 49.738281 0.11132812 A 2.5 2.5 0 0 0 49.496094 0.05078125 A 2.5 2.5 0 0 0 49.25 0.01171875 A 2.5 2.5 0 0 0 49 0 L 6 0 z M 6 2.5 L 8.5 2.5 L 46.5 2.5 L 49 2.5 L 49 5 L 49 22 L 49 24.5 L 46.5 24.5 L 8.5 24.5 L 6 24.5 L 6 22 L 6 5 L 6 2.5 z "
       style="opacity:1;fill:#ffffff;fill-opacity:1;stroke:none;stroke-width:4.26817894;stroke-miterlimit:4;stroke-dasharray:none;stroke-opacity:1" />
    <path
       id="path1021"
       transform="scale(0.74999997)"
       d="M 0 29 L 0 30.5 A 1.5000001 1.4999999 0 0 0 0.00390625 30.605469 A 1.5000001 1.4999999 0 0 0 0.021484375 30.755859 A 1.5000001 1.4999999 0 0 0 0.0546875 30.900391 A 1.5000001 1.4999999 0 0 0 0.1015625 31.042969 A 1.5000001 1.4999999 0 0 0 0.1640625 31.179688 A 1.5000001 1.4999999 0 0 0 0.23828125 31.310547 A 1.5000001 1.4999999 0 0 0 0.32421875 31.431641 A 1.5000001 1.4999999 0 0 0 0.42382812 31.544922 A 1.5000001 1.4999999 0 0 0 0.53320312 31.646484 A 1.5000001 1.4999999 0 0 0 0.65234375 31.738281 A 1.5000001 1.4999999 0 0 0 0.78125 31.816406 A 1.5000001 1.4999999 0 0 0 0.91601562 31.880859 A 1.5000001 1.4999999 0 0 0 1.0566406 31.933594 A 1.5000001 1.4999999 0 0 0 1.2011719 31.970703 A 1.5000001 1.4999999 0 0 0 1.3496094 31.992188 A 1.5000001 1.4999999 0 0 0 1.5 32 L 53.5 32 A 1.5000001 1.4999999 0 0 0 53.605469 31.996094 A 1.5000001 1.4999999 0 0 0 53.755859 31.978516 A 1.5000001 1.4999999 0 0 0 53.900391 31.945312 A 1.5000001 1.4999999 0 0 0 54.042969 31.898438 A 1.5000001 1.4999999 0 0 0 54.179688 31.835938 A 1.5000001 1.4999999 0 0 0 54.310547 31.761719 A 1.5000001 1.4999999 0 0 0 54.431641 31.675781 A 1.5000001 1.4999999 0 0 0 54.544922 31.576172 A 1.5000001 1.4999999 0 0 0 54.646484 31.466797 A 1.5000001 1.4999999 0 0 0 54.738281 31.347656 A 1.5000001 1.4999999 0 0 0 54.816406 31.21875 A 1.5000001 1.4999999 0 0 0 54.880859 31.083984 A 1.5000001 1.4999999 0 0 0 54.933594 30.943359 A 1.5000001 1.4999999 0 0 0 54.970703 30.798828 A 1.5000001 1.4999999 0 0 0 54.992188 30.650391 A 1.5000001 1.4999999 0 0 0 55 30.5 L 55 29 L 53.5 29 L 35.068359 29 L 35.068359 30 L 19.931641 30 L 19.931641 29 L 1.5 29 L 0 29 z "
       style="opacity:1;fill:#ffffff;fill-opacity:1;stroke:none;stroke-width:3.00267673;stroke-miterlimit:4;stroke-dasharray:none;stroke-opacity:1" />
  </g>
</svg>
